<svg xmlns="http://www.w3.org/2000/svg" viewBox="0 0 269.11 285.96"><defs><style>.cls-1{fill:#c9a85b;}.cls-2{fill:#ed1558;}</style></defs><title>lm-logo-300</title><g id="Layer_3" data-name="Layer 3"><rect class="cls-1" x="39.76" y="71.83" width="177.5" height="86"/><rect class="cls-1" x="39.76" y="153.83" width="101.33" height="31"/><rect class="cls-1" x="197.26" y="71.83" width="51" height="32"/></g><g id="Layer_1" data-name="Layer 1"><path class="cls-2" d="M282.62,64.16c-1-4.28-6.55-26.6-21.5-39.77-20.42-18-57.6-30.33-90.29,1.07-4.32,3.41-9.65,11.36-11.82,12.9,0,0-7.46,11.65-14,12.9a18.65,18.65,0,0,1-14-3.22c-6.35-4.71-27.46-19.09-53.75-15C40.81,38.6,18.71,76,16,105c-1.54,16.74,3.31,31.51,5.37,37.62,4.6,13.59,11.36,24.15,20.42,35.47,23.07,28.8,36.06,31.26,58,53.75,33.3,34.07,36.39,62.08,48.37,60.2,11.48-1.81,7.63-27.33,31.17-63.42,9.27-14.21,18.93-24,34.4-39.77,22.82-23.21,26.19-21.44,40.85-38.7,12.81-15.08,25.18-30,29-52.67A85.11,85.11,0,0,0,282.62,64.16Zm-158,125.53c-18,0-39.35-19-60.53-19-3.1,0-5.14.44-8,4.61L55.5,175C62,163.81,68.35,161.6,70.74,146.53l3.37-21.27c2.84-17.19,18.61-37,37.93-37,7.27,0,10.81,4.43,10.81,9.31,0,6.29-5.94,11.7-12.41,11.7-4.08,0-7.71-2.84-6.56-7.44,3.54.09,5.49-3.19,5.49-6.12,0-2.39-2.13-5-5.85-5-7.8,0-9.93,11.43-10.9,17.37l-4.7,29.78c-3.1,19.23-21.45,20.56-30.4,34.92l.09.09c8-9.66,15.51-13.12,23.22-13.12,18.26,0,41.48,16,56.72,16a13.67,13.67,0,0,0,9.75-3.54l.35.18C141.11,185.35,133.22,189.69,124.62,189.69ZM249,98.85a4.71,4.71,0,0,1-4.61-3.37,4.88,4.88,0,0,0,2.75-4.61,4.39,4.39,0,0,0-4.43-4.7c-6.47,0-9.48,12.23-10.46,18.17l-6,37.75c-1.68,10.37-2.48,15.33,6.82,15.33l-.09.62H199.33l.09-.62c5.85,0,7.18-3.19,8.69-12.67l3.54-23.22a42.46,42.46,0,0,1,8-19c-15.86,16.22-32.26,47-37,58.49L168.31,100l-6,37.93c-3.63,23.13-16.4,28.09-25.7,28.09-13.56,0-21.71-7.62-21.71-17.64,0-10.37,9-16.84,18-16.84,8.51,0,17.72,5.05,17.72,14,0,5.94-4.52,10.9-11.52,10.9-5.05,0-9.39-4.08-7.8-9.48,4.25-.09,7.62-3.63,7.62-8.33s-4.08-6.38-7.36-6.38c-6.29,0-13,6.65-13,16,0,7.89,4.7,16.93,18.08,16.93s21.89-9.75,24.64-27l6.91-43.25a30.77,30.77,0,0,0,12.76,2.22c-9.22-1.42-15.69-8.51-25.52-8.51-5.49,0-9.39,2.22-9.39,6.91,0,4.17,3.1,5.58,5.85,5.58a8.58,8.58,0,0,0,6.74-3.54c10.37,4.7,3.63,17.72-6.74,17.72-6.56,0-13.12-5-13.12-12.76,0-8.24,6.82-14.71,16.4-14.71,11.25,0,19.05,8.86,29.6,8.86,1.95,0,2.84-1.15,2.84-2.22,0-1.42-1.51-2.84-4-1.33-2-3.81.89-6.91,4.08-6.91,2.22,0,4.79,1.51,4.79,4.34,0,4.43-2.66,6-5.76,6.56l8.51,37.75c8.51-14.53,19.5-30.31,29.69-38.2,8.77-8.68,19.59-13.38,25.52-13.38,5.32,0,7.8,3,7.8,6.65C258.17,95.66,253.12,98.85,249,98.85Z" transform="translate(-15.74 -6.17)"/></g></svg>